<svg width="85" height="31" viewBox="0 0 85 31" fill="none" xmlns="http://www.w3.org/2000/svg">
<path d="M16.8457 0.642395H22.1469L25.1477 5.59163L29.2267 0.642395H34.7663L27.2841 9.59062L26.8419 14.4062H22.2015L22.6437 9.59062L16.8457 0.642395Z" fill="white"/>
<path d="M51.3497 17.9746C50.6541 17.3609 49.7549 17.0541 48.6569 17.0541H39.8232C38.7203 17.0541 37.8409 17.3609 37.1851 17.9746C36.5243 18.5883 36.1566 19.3357 36.0821 20.2265L35.3965 27.8038C35.3021 28.6947 35.6101 29.442 36.3156 30.0557C37.0211 30.6694 37.9204 30.9713 39.0233 30.9713H47.852C48.955 30.9713 49.8294 30.6645 50.4802 30.0557C51.1311 29.442 51.5037 28.6947 51.5981 27.8038L52.2837 20.2265C52.3533 19.3406 52.0452 18.5883 51.3497 17.9746ZM47.544 20.672L46.9279 27.3584C46.9229 27.5267 46.8136 27.6108 46.605 27.6108H40.4095C40.2008 27.6108 40.1015 27.5267 40.1114 27.3584L40.6082 21.9291L38.5613 20.4295H41.0305C41.0454 20.4295 41.0554 20.4245 41.0703 20.4245H47.2657C47.4744 20.4196 47.5638 20.5037 47.544 20.672Z" fill="#6080FF"/>
<path d="M83.1327 1.558C82.4421 0.944299 81.5528 0.642395 80.4648 0.642395H68.6303L67.3584 14.4062H71.9988L72.4062 9.89252H74.6568L78.2241 14.4062H83.5501L79.5357 9.89252H79.6301C80.9715 9.89252 81.9751 9.58567 82.6458 8.96701C83.3166 8.34836 83.6942 7.61092 83.7836 6.75965L84.0519 3.77526C84.1314 2.90915 83.8283 2.17171 83.1327 1.558ZM79.3668 4.21575L79.1631 6.4726C79.1581 6.63592 79.0488 6.72006 78.8451 6.72006H72.7142L72.8384 5.36397L70.9405 3.96828H72.9676V3.96333H79.0985C79.2972 3.96828 79.3866 4.05242 79.3668 4.21575Z" fill="white"/>
<path d="M15.5884 17.9647C14.8929 17.351 13.9936 17.0442 12.8956 17.0442H4.54395C3.44099 17.0442 2.5616 17.351 1.90578 17.9647C1.245 18.5785 0.877349 19.3258 0.802825 20.2166L0.618998 22.3795C0.5246 23.2703 0.832635 24.0177 1.53813 24.6314C2.24363 25.2451 3.14289 25.547 4.24585 25.547H11.0425C11.2511 25.547 11.3406 25.6311 11.3207 25.7994L11.1766 27.3436C11.1716 27.5118 11.0623 27.596 10.8537 27.596H5.12524C4.91657 27.596 4.8172 27.5118 4.82714 27.3436L4.91657 26.5517H0.226503L0.117201 27.789C0.0228034 28.6798 0.330837 29.4272 1.03633 30.0409C1.74183 30.6546 2.64109 30.9565 3.74405 30.9565H12.215C13.3179 30.9565 14.1725 30.6496 14.7836 30.0409C15.3947 29.4272 15.7474 28.6798 15.8418 27.789L16.0257 25.6262C16.1201 24.7353 15.812 23.988 15.1065 23.3743C14.401 22.7606 13.5018 22.4587 12.3988 22.4587H5.60219C5.39352 22.4587 5.29416 22.3745 5.30409 22.2062L5.34881 21.7212L3.56519 20.4146H5.75124C5.76614 20.4146 5.77608 20.4097 5.79099 20.4097H11.5095C11.7182 20.4097 11.8076 20.4938 11.7877 20.6621L11.7231 21.454H16.4132L16.5225 20.2166C16.597 19.3307 16.284 18.5785 15.5884 17.9647Z" fill="#6080FF"/>
<path d="M53.1045 30.9614L54.3913 17.0442H59.0813L58.7435 20.7363L63.3143 17.0442H68.8887L62.5691 22.0528L68.0342 30.9614H62.6734L59.0813 24.7749L58.2963 25.3936L57.7896 30.9614H53.1045Z" fill="#6080FF"/>
<path d="M16.3991 1.17716C15.9917 0.820812 15.47 0.642639 14.844 0.642639H4.26155C3.17349 0.642639 2.34379 0.944543 1.76747 1.54835C1.19611 2.15216 0.868206 2.89454 0.793681 3.77551L0.117994 11.2687C0.0285652 12.1496 0.326663 12.892 1.02719 13.4958C1.72275 14.0996 2.61704 14.4015 3.7051 14.4015H13.5721C14.2031 14.4015 14.7546 14.2234 15.2315 13.867C15.7085 13.5107 15.9668 13.0751 16.0165 12.5654L16.2898 9.48693H11.6494L11.5152 10.9222C11.5103 11.0261 11.4457 11.0756 11.3215 11.0756H5.07138C4.86768 11.0756 4.76831 10.9915 4.77328 10.8282L5.27508 5.40381L3.31757 3.96853H5.68744C5.70235 3.96853 5.71229 3.96358 5.72719 3.96358H11.9773C12.1015 3.96358 12.1562 4.01307 12.1363 4.117L12.027 5.55228H16.6624L16.9356 2.47386C16.9853 1.96904 16.8065 1.5335 16.3991 1.17716Z" fill="white"/>
<path d="M30.1261 17.0491L29.6342 22.2656H22.7234L23.2103 17.0491H18.5202L17.2334 30.9614H21.9235L22.2911 26.9328L20.5174 25.6311H22.4104H29.3262L28.8393 30.9614H33.5294L34.8112 17.0491H30.1261Z" fill="#6080FF"/>
<path d="M67.1443 0.642395H54.5447C53.5958 0.642395 52.8952 1.20166 52.8207 2.01828L51.9115 11.8574C51.7923 13.1194 53.1685 14.4062 54.6391 14.4062H65.8774L66.1854 11.0803H56.6264L56.7308 9.95686L55.3148 8.91752H58.2908H65.3209L65.5793 6.12615H57.0835L57.158 5.31448L55.3297 3.97323H57.2822V3.96828H66.8412L67.1443 0.642395Z" fill="white"/>
<path d="M84.0612 17.059H71.3225C70.3636 17.059 69.6532 17.6232 69.5786 18.4498L68.6595 28.3977C68.5403 29.6746 69.9314 30.9763 71.4169 30.9763H82.7794L83.0924 27.6157H73.4291L73.5334 26.4824L72.1025 25.4331H75.1133H82.218L82.4763 22.6121H73.8861L73.9607 21.7905L72.1125 20.4344H74.0898V20.4295H83.7532L84.0612 17.059Z" fill="#6080FF"/>
<path d="M50.4313 2.39938C50.1928 1.85001 49.7755 1.41943 49.1743 1.10763C48.5731 0.795827 47.8627 0.637451 47.0429 0.637451H35.9438L34.6719 14.4013H47.3311C48.1359 14.4013 48.8116 14.1984 49.3631 13.7876C49.9096 13.3817 50.3319 12.872 50.6201 12.2682C50.9082 11.6644 51.0672 11.0111 51.0871 10.3182C51.107 9.62527 50.9927 8.98187 50.7393 8.39786C50.4412 7.70991 49.999 7.20014 49.4128 6.86854C49.6662 6.69037 49.8947 6.42311 50.0934 6.06677C50.2922 5.71042 50.4412 5.31448 50.5356 4.8839C50.63 4.44836 50.6747 4.01283 50.6648 3.57235C50.6598 3.13682 50.5803 2.74583 50.4313 2.39938ZM46.3374 9.81829L46.3026 10.1251C46.2877 10.3825 46.1536 10.6052 45.9052 10.7933C45.6568 10.9863 45.3686 11.0803 45.0357 11.0803H39.6203L39.7395 9.84304L38.3832 8.84824H39.8339V8.84329H45.2543C45.776 8.84329 46.1138 9.02641 46.2778 9.3976C46.3225 9.51144 46.3424 9.65496 46.3374 9.81829ZM45.9896 4.92349L45.9648 5.19075C45.94 5.45801 45.8008 5.68567 45.5524 5.8787C45.304 6.07172 45.0159 6.16575 44.683 6.16575H40.0674L40.1618 5.10661L38.5968 3.95839H40.2612V3.94849H44.8767C45.3984 3.94849 45.7462 4.15141 45.9251 4.5622C45.9847 4.70078 46.0095 4.82451 45.9896 4.92349Z" fill="white"/>
</svg>
